# xmcd
# 
# Track frame offsets:
#     150
#     16210
#     31031
#     46397
#     60194
#     77225
#     90752
#     117125
#     132081
#     145153
#     165171
#     179221
#     194997
#     211394
#     226734
#     252576
#     266824
#     284211
# 
# Disc length: 3990
# 
# Revision: 4
# Processed by: cddbd v1.5.2PL0 Copyright (c) Steve Scherf et al.
# Submitted via: fre:ac v1.0.31
# 
DISCID=fc0f9412
DTITLE=Various Artist - Summer of Love Set 1 - CD 2
DYEAR=0
DGENRE=Blues
TTITLE0=Compilation Disk - let's go to san francisco
TTITLE1=Compilation Disk - black magic woman
TTITLE2=Compilation Disk - monday, monday
TTITLE3=Compilation Disk - sound of silence
TTITLE4=Compilation Disk - suzanne
TTITLE5=Compilation Disk - the rain, the park and other things
TTITLE6=Compilation Disk - music
TTITLE7=Compilation Disk - san francisco nights
TTITLE8=Compilation Disk - catch the wind
TTITLE9=Compilation Disk - woodstock
TTITLE10=Compilation Disk - angel of the morning
TTITLE11=Compilation Disk - sweet dreams
TTITLE12=Compilation Disk - pearl's a singer
TTITLE13=Compilation Disk - bird on the wire
TTITLE14=Compilation Disk - melancoly man
TTITLE15=Compilation Disk - i got a name
TTITLE16=Compilation Disk - homburg
TTITLE17=Compilation Disk - on the road again
EXTD=ID3G: 0
EXTT0=The Flowerpot Men\n
EXTT1=Santana\n
EXTT2=The Mamas and The Papas\n
EXTT3=Simon and Garfunkel\n
EXTT4=Leonard Cohen\n
EXTT5=The Cowsills\n
EXTT6=John Miles\n
EXTT7=Eric Burdon and The Animals\n
EXTT8=Donovan\n
EXTT9=Matthews Southern Comfort\n
EXTT10=Merrilee Rush\n
EXTT11=Roy Buchanan\n
EXTT12=Elkie Brooks\n
EXTT13=Leonard Cohen\n
EXTT14=The Moody Blues\n
EXTT15=Jim Croce\n
EXTT16=Procol Harum\n
EXTT17=Canned Heat\n
PLAYORDER=
